<svg width="22" height="22" viewBox="0 0 22 22" fill="none" xmlns="http://www.w3.org/2000/svg">
<path d="M7 3C7 4.1 8.8 5 11 5C13.2 5 15 4.1 15 3V2C15 1.4 14.6 1 14 1H8C7.4 1 7 1.4 7 2V3Z" stroke="#FEFDF8" stroke-width="2" stroke-linecap="round" stroke-linejoin="round"/>
<path d="M7 3C7 5 11 8 11 13M11 13V21M11 13C11 8 15 5 15 3M5 18H2C1.4 18 1 17.6 1 17V6C1 4.9 1.8 3.7 2.9 3.4L7 2" stroke="#FEFDF8" stroke-width="2" stroke-linecap="round" stroke-linejoin="round"/>
<path d="M17 8V20C17 20.6 16.6 21 16 21H6C5.4 21 5 20.6 5 20V8" stroke="#FEFDF8" stroke-width="2" stroke-linecap="round" stroke-linejoin="round"/>
<path d="M15 2L19.1 3.4C20.2 3.7 21 4.9 21 6V17C21 17.6 20.6 18 20 18H17M5 14L7 12M17 14L15 12" stroke="#FEFDF8" stroke-width="2" stroke-linecap="round" stroke-linejoin="round"/>
</svg>
