<svg width="20" height="22" viewBox="0 0 20 22" fill="none" xmlns="http://www.w3.org/2000/svg">
<path d="M19.9869 19.7905L17.6954 1.45825C17.6446 1.05541 17.4486 0.684959 17.144 0.416454C16.8394 0.147948 16.4473 -0.000139269 16.0413 9.82811e-08H3.95868C3.55266 -0.000139269 3.16055 0.147948 2.85599 0.416454C2.55143 0.684959 2.35536 1.05541 2.30461 1.45825L0.0130715 19.7905C-0.0164902 20.0252 0.00422467 20.2634 0.0738397 20.4894C0.143455 20.7154 0.260376 20.9241 0.416832 21.1014C0.573289 21.2787 0.765698 21.4208 0.981272 21.518C1.19685 21.6153 1.43065 21.6655 1.66714 21.6654H5.90544C6.27607 21.6655 6.63614 21.542 6.92872 21.3145C7.22131 21.087 7.42971 20.7685 7.52097 20.4092L10 10.8265L12.478 20.403C12.5681 20.7635 12.7762 21.0836 13.0691 21.3124C13.362 21.5411 13.7229 21.6654 14.0946 21.6654H18.3329C18.5693 21.6655 18.8032 21.6153 19.0187 21.518C19.2343 21.4208 19.4267 21.2787 19.5832 21.1014C19.7396 20.9241 19.8565 20.7154 19.9262 20.4894C19.9958 20.2634 20.0165 20.0252 19.9869 19.7905ZM16.76 7.41624C16.1639 7.2794 15.6166 6.98179 15.1777 6.55575C14.7388 6.12972 14.4251 5.59154 14.2706 4.99971H16.458L16.76 7.41624ZM16.0413 1.66657L16.2496 3.33314H3.75036L3.95868 1.66657H16.0413ZM3.54204 4.99971H5.72941C5.57491 5.59154 5.26117 6.12972 4.82228 6.55575C4.38339 6.98179 3.83613 7.2794 3.23997 7.41624L3.54204 4.99971ZM5.90544 19.9989H1.66714L3.02123 9.13802C4.10656 9.02279 5.12453 8.55617 5.92025 7.80915C6.71597 7.06213 7.24587 6.07561 7.42931 4.99971H9.16671V7.39541L5.90544 19.9989ZM14.0925 19.9926L10.8333 7.39541V4.99971H12.5707C12.7541 6.07561 13.284 7.06213 14.0798 7.80915C14.8755 8.55617 15.8934 9.02279 16.9788 9.13802L18.3329 19.9989L14.0925 19.9926Z" fill="white"/>
</svg>
