<svg width="20" height="20" viewBox="0 0 20 20" fill="none" xmlns="http://www.w3.org/2000/svg">
<path fill-rule="evenodd" clip-rule="evenodd" d="M6.54141 0C5.67432 0.000474323 4.84289 0.345202 4.22986 0.958418L0.95772 4.22947C0.344492 4.84288 0 5.67474 0 6.54211C0 7.40947 0.344492 8.24133 0.95772 8.85474L4.75759 12.6546C4.69293 13.272 4.76707 13.8959 4.97459 14.481C5.1821 15.066 5.51775 15.5972 5.95698 16.0358C6.3956 16.4754 6.92697 16.8113 7.51218 17.019C8.09739 17.2267 8.72164 17.301 9.33925 17.2363L10.8646 18.7628C11.0692 18.9672 11.3467 19.082 11.6359 19.0819C11.9251 19.0818 12.2025 18.9668 12.4069 18.7622C12.6114 18.5576 12.7262 18.2802 12.7261 17.9909C12.726 17.7017 12.611 17.4244 12.4064 17.2199L11.5243 16.3378C11.6406 16.244 11.7533 16.1434 11.8623 16.0358L12.1807 15.7163L13.5905 17.1261C13.7962 17.3248 14.0716 17.4347 14.3575 17.4322C14.6434 17.4297 14.9168 17.315 15.119 17.1129C15.3212 16.9107 15.4358 16.6372 15.4383 16.3513C15.4408 16.0655 15.3309 15.79 15.1323 15.5844L13.7225 14.1746L14.3614 13.5356L16.3164 15.4906C16.522 15.6892 16.7975 15.7991 17.0834 15.7966C17.3692 15.7942 17.6427 15.6795 17.8449 15.4773C18.047 15.2752 18.1617 15.0017 18.1642 14.7158C18.1667 14.4299 18.0568 14.1545 17.8582 13.9489L15.9032 11.9939L19.0423 8.85474C19.6555 8.24133 20 7.40947 20 6.54211C20 5.67474 19.6555 4.84288 19.0423 4.22947L15.7712 0.958418C15.1579 0.344934 14.3261 0.000185264 13.4586 0H6.54141ZM17.4994 7.31298C17.7038 7.10851 17.8187 6.83123 17.8187 6.54211C17.8187 6.25298 17.7038 5.9757 17.4994 5.77123L14.2284 2.50017C14.0242 2.29595 13.7474 2.18105 13.4586 2.1807H6.5425C6.25334 2.18076 5.97605 2.29568 5.77162 2.50017L2.50057 5.77123C2.29616 5.9757 2.18133 6.25298 2.18133 6.54211C2.18133 6.83123 2.29616 7.10851 2.50057 7.31298L5.65713 10.4685C5.75018 10.3522 5.85085 10.2402 5.95916 10.1326L8.45824 7.63246L7.04842 6.22263C6.8498 6.01699 6.7399 5.74157 6.74239 5.45568C6.74487 5.16979 6.85954 4.89632 7.0617 4.69416C7.26386 4.492 7.53734 4.37733 7.82322 4.37484C8.10911 4.37236 8.38453 4.48226 8.59018 4.68088L10 6.0907L12.5002 3.59053C12.6008 3.48639 12.7211 3.40332 12.8541 3.34618C12.9871 3.28903 13.1302 3.25895 13.275 3.2577C13.4198 3.25644 13.5633 3.28402 13.6973 3.33885C13.8313 3.39367 13.9531 3.47463 14.0554 3.57701C14.1578 3.67939 14.2388 3.80113 14.2936 3.93513C14.3484 4.06913 14.376 4.2127 14.3748 4.35748C14.3735 4.50226 14.3434 4.64533 14.2863 4.77836C14.2291 4.91139 14.1461 5.0317 14.0419 5.13228L7.49982 11.6744C7.12592 12.0483 6.91586 12.5554 6.91586 13.0842C6.91586 13.613 7.12592 14.1201 7.49982 14.494C7.87373 14.8679 8.38086 15.078 8.90965 15.078C9.43843 15.078 9.94556 14.8679 10.3195 14.494L17.4994 7.31298Z" fill="white"/>
</svg>
