<svg width="22" height="22" viewBox="0 0 22 22" fill="none" xmlns="http://www.w3.org/2000/svg">
<path d="M19.1278 2.46L14.7478 1C14.7478 2.06087 14.3264 3.07828 13.5763 3.82843C12.8261 4.57857 11.8087 5 10.7478 5C9.68698 5 8.66956 4.57857 7.91942 3.82843C7.16927 3.07828 6.74784 2.06087 6.74784 1L2.36784 2.46C1.91523 2.61079 1.53142 2.91842 1.2857 3.32734C1.03997 3.73627 0.948521 4.21956 1.02784 4.69L1.60784 8.16C1.64592 8.39491 1.76652 8.60855 1.94798 8.76251C2.12944 8.91648 2.35987 9.00069 2.59784 9H4.74784V19C4.74784 20.1 5.64784 21 6.74784 21H14.7478C15.2783 21 15.787 20.7893 16.1621 20.4142C16.5371 20.0391 16.7478 19.5304 16.7478 19V9H18.8978C19.1358 9.00069 19.3662 8.91648 19.5477 8.76251C19.7292 8.60855 19.8498 8.39491 19.8878 8.16L20.4678 4.69C20.5472 4.21956 20.4557 3.73627 20.21 3.32734C19.9643 2.91842 19.5805 2.61079 19.1278 2.46Z" stroke="#FEFDF8" stroke-width="2" stroke-linecap="round" stroke-linejoin="round"/>
</svg>
