<svg width="276" height="138" viewBox="0 0 276 138" fill="none" xmlns="http://www.w3.org/2000/svg">
<path d="M71.2743 19.7237L70.5098 16.8709C54.7784 19.1678 39.0912 20.4349 26.7535 19.2792C20.5815 18.701 15.3452 17.5244 11.3854 15.6333C7.44424 13.751 4.87467 11.2182 3.77791 7.94339C3.19047 6.18937 2.78544 4.66856 2.54817 3.25403C2.50458 2.99413 2.46662 2.73768 2.43425 2.48394L273.809 1.98975C273.768 2.40415 273.711 2.82445 273.639 3.25403C273.402 4.66856 272.997 6.18938 272.409 7.94341C271.312 11.2182 268.743 13.751 264.802 15.6332C260.842 17.5244 255.606 18.701 249.434 19.2792C237.096 20.4349 221.409 19.1679 205.678 16.871L204.914 19.7238C219.685 25.6012 233.904 32.3483 244.01 39.5186C249.066 43.1056 253.012 46.7429 255.496 50.3607C257.968 53.9615 258.926 57.4398 258.239 60.8242C257.603 63.9516 256.843 66.2138 255.698 68.1964C254.553 70.1789 252.974 71.9684 250.583 74.0822C248.015 76.3529 244.556 77.2645 240.247 76.9448C235.917 76.6236 230.847 75.0623 225.268 72.5243C214.116 67.4505 201.283 58.6387 188.885 48.8824L186.799 50.973C196.583 63.349 205.423 76.1629 210.521 87.3037C213.071 92.8768 214.644 97.9432 214.975 102.273C215.304 106.581 214.4 110.042 212.135 112.615C210.026 115.011 208.24 116.594 206.26 117.743C204.28 118.892 202.019 119.658 198.894 120.3C195.488 121 191.982 120.031 188.35 117.529C184.7 115.016 181.029 111.022 177.409 105.91C170.171 95.6916 163.358 81.3289 157.433 66.4557L154.58 67.2234C156.921 83.0615 158.238 98.9035 157.108 111.374C156.542 117.613 155.372 122.909 153.477 126.915C151.591 130.903 149.045 133.5 145.748 134.604C142.722 135.618 140.383 136.09 138.094 136.09C135.804 136.09 133.465 135.618 130.439 134.604C127.142 133.5 124.596 130.903 122.71 126.915C120.815 122.91 119.645 117.613 119.08 111.375C117.949 98.9046 119.266 83.063 121.606 67.2252L118.754 66.4575C112.829 81.3303 106.016 95.6926 98.7786 105.911C95.1581 111.022 91.4872 115.016 87.8378 117.529C84.2051 120.031 80.6998 121 77.294 120.3C74.168 119.658 71.9075 118.892 69.9274 117.743C67.9474 116.594 66.1614 115.011 64.0529 112.615C61.7878 110.042 60.8838 106.581 61.2129 102.273C61.5437 97.9432 63.1161 92.8768 65.6664 87.3037C70.7646 76.1629 79.6046 63.349 89.3882 50.973L87.3022 48.8824C74.9047 58.6387 62.0715 67.4505 50.9195 72.5243C45.3409 75.0623 40.271 76.6236 35.9409 76.9448C31.6317 77.2645 28.1728 76.3529 25.6044 74.0822C23.2136 71.9684 21.6345 70.1789 20.4897 68.1964C19.3449 66.2138 18.5844 63.9516 17.9489 60.8242C17.2611 57.4398 18.2199 53.9615 20.6917 50.3607C23.1752 46.7428 27.1214 43.1055 32.1772 39.5185C42.2838 32.3482 56.5024 25.6011 71.2743 19.7237Z" fill="#FFF4A5" stroke="black" stroke-width="2.97376"/>
</svg>
