<svg width="191" height="191" viewBox="0 0 191 191" fill="none" xmlns="http://www.w3.org/2000/svg">
<circle cx="95.1695" cy="95.1626" r="73.8484" fill="#FA9189" stroke="black" stroke-width="2.97376"/>
<path d="M56.2009 58.8876L48.3397 51.9393L53.0567 46.6025L54.6511 48.0118L51.539 51.5327L53.2331 53.03L55.7971 50.1291L57.2697 51.4307L54.7057 54.3316L57.8059 57.0718L56.2009 58.8876Z" fill="#FEFDF8"/>
<path d="M68.7651 45.7574L70.0423 47.4594L64.1443 51.8852L57.8471 43.4934L63.6387 39.1474L64.9159 40.8494L61.0627 43.7408L62.2867 45.3719L65.5961 42.8885L66.7757 44.4605L63.4663 46.9439L64.8055 48.7287L68.7651 45.7574Z" fill="#FEFDF8"/>
<path d="M79.2744 41.4306L80.1819 43.3553L73.5121 46.4998L69.038 37.0097L75.5874 33.922L76.4949 35.8467L72.1375 37.901L73.0071 39.7456L76.7496 37.9811L77.5877 39.7588L73.8452 41.5233L74.7967 43.5416L79.2744 41.4306Z" fill="#FEFDF8"/>
<path d="M83.8711 43.0913L81.4042 32.8936L83.7597 32.3237L85.7263 40.4532L90.6671 39.258L91.1674 41.3262L83.8711 43.0913Z" fill="#FEFDF8"/>
<path d="M100.918 34.2289C100.887 34.1807 100.781 34.1104 100.6 34.018C100.419 33.9157 100.194 33.8101 99.9241 33.701C99.6542 33.5919 99.3602 33.4984 99.0421 33.4206C98.724 33.3427 98.4075 33.3092 98.0924 33.32C97.6789 33.3341 97.3614 33.4189 97.14 33.5743C96.9183 33.7199 96.8124 33.9403 96.8225 34.2357C96.8306 34.472 96.9207 34.6562 97.0928 34.7883C97.2747 34.9201 97.53 35.0346 97.8586 35.1318C98.1868 35.2192 98.5896 35.3237 99.0669 35.4454C99.7425 35.5998 100.331 35.7965 100.832 36.0357C101.333 36.265 101.718 36.5723 101.987 36.9573C102.266 37.3421 102.417 37.8594 102.439 38.5092C102.459 39.0999 102.368 39.6058 102.166 40.0267C101.963 40.4378 101.679 40.7777 101.313 41.0465C100.958 41.305 100.545 41.5015 100.077 41.6358C99.6079 41.7602 99.1224 41.831 98.6202 41.8482C98.1083 41.8656 97.5798 41.8344 97.035 41.7544C96.4996 41.6643 95.9826 41.5341 95.4839 41.3638C94.9849 41.1837 94.5239 40.9629 94.101 40.7014L95.0922 38.5531C95.1332 38.601 95.2644 38.6902 95.4857 38.8206C95.7067 38.9412 95.9773 39.07 96.2974 39.2069C96.627 39.3336 96.9906 39.4444 97.3881 39.5393C97.7856 39.6341 98.1862 39.6747 98.5899 39.6609C99.0231 39.6461 99.3407 39.5662 99.5428 39.4213C99.7547 39.2761 99.8564 39.0804 99.848 38.8343C99.839 38.5684 99.7187 38.3655 99.4872 38.2256C99.2655 38.0853 98.9607 37.9626 98.5727 37.8576C98.1945 37.7522 97.7567 37.6341 97.2594 37.5032C96.6127 37.3282 96.0735 37.1248 95.6417 36.8931C95.2198 36.6611 94.8994 36.3714 94.6805 36.024C94.4715 35.6763 94.3579 35.2366 94.3397 34.7049C94.3145 33.9665 94.4656 33.3403 94.7931 32.8264C95.13 32.3023 95.5895 31.9022 96.1715 31.6261C96.7532 31.34 97.3936 31.1851 98.0926 31.1612C98.5849 31.1444 99.0595 31.1873 99.5164 31.29C99.9832 31.3924 100.417 31.5254 100.816 31.6892C101.226 31.8526 101.592 32.0176 101.913 32.184L100.918 34.2289Z" fill="#FEFDF8"/>
<path d="M115.825 46.0028L119.664 36.2387L121.92 37.1255L118.859 44.9093L123.59 46.7695L122.811 48.7498L115.825 46.0028Z" fill="#FEFDF8"/>
<path d="M125.406 51.2264L131.136 42.438L133.166 43.7618L127.436 52.5502L125.406 51.2264Z" fill="#FEFDF8"/>
<path d="M129.199 54.1093L135.83 45.9784L137.708 47.51L134.85 51.0143L140.685 49.9381L142.792 51.6565L136.786 52.8026L136.368 59.9555L134.215 58.1998L134.586 53.0681L133.029 53.2474L131.077 55.6409L129.199 54.1093Z" fill="#FEFDF8"/>
<path d="M143.972 67.4956L142.301 68.8125L137.737 63.0205L145.978 56.5273L150.46 62.2149L148.788 63.5318L145.807 59.7478L144.205 61.0099L146.766 64.26L145.222 65.4763L142.661 62.2262L140.908 63.6072L143.972 67.4956Z" fill="#FEFDF8"/>
<path d="M157.563 81.4694L153.655 84.8415L158.726 85.8696L159.403 88.4268L151.761 86.5805L148.304 87.4947L147.688 85.1661L151.174 84.2443L156.89 78.9265L157.563 81.4694Z" fill="#FEFDF8"/>
<path d="M148.594 99.0255C148.563 98.238 148.683 97.5185 148.953 96.8671C149.233 96.2251 149.616 95.6629 150.099 95.1806C150.594 94.7077 151.151 94.3359 151.771 94.0651C152.401 93.7939 153.056 93.645 153.735 93.6184C154.434 93.591 155.104 93.6929 155.744 93.9242C156.384 94.1653 156.96 94.5075 157.47 94.9509C157.991 95.4037 158.406 95.9445 158.717 96.5731C159.027 97.2018 159.197 97.8951 159.227 98.6531C159.258 99.4308 159.133 100.141 158.852 100.783C158.582 101.434 158.2 101.996 157.705 102.469C157.212 102.952 156.65 103.329 156.02 103.6C155.399 103.871 154.759 104.019 154.1 104.045C153.401 104.072 152.731 103.97 152.091 103.739C151.451 103.508 150.871 103.166 150.35 102.713C149.84 102.26 149.424 101.719 149.104 101.091C148.793 100.472 148.624 99.7835 148.594 99.0255ZM153.803 96.0855C153.399 96.1013 153.007 96.1758 152.628 96.3089C152.259 96.4417 151.931 96.6271 151.644 96.8651C151.358 97.1129 151.133 97.4126 150.97 97.7641C150.806 98.1155 150.733 98.5128 150.75 98.9558C150.768 99.4184 150.873 99.8185 151.063 100.156C151.264 100.493 151.521 100.769 151.835 100.984C152.149 101.198 152.496 101.352 152.874 101.446C153.262 101.549 153.654 101.593 154.047 101.577C154.451 101.561 154.837 101.487 155.207 101.354C155.576 101.222 155.904 101.031 156.19 100.783C156.486 100.535 156.711 100.236 156.865 99.8844C157.019 99.5333 157.087 99.1412 157.07 98.7081C157.052 98.2454 156.948 97.8453 156.757 97.5077C156.567 97.1799 156.314 96.9039 156 96.6796C155.696 96.4648 155.349 96.3058 154.961 96.2027C154.582 96.1091 154.196 96.07 153.803 96.0855Z" fill="#FEFDF8"/>
<path d="M145.941 112.194C146.117 111.375 146.403 110.706 146.797 110.186C147.201 109.669 147.678 109.278 148.229 109.014C148.787 108.761 149.389 108.614 150.033 108.572C150.684 108.541 151.347 108.598 152.021 108.744L157.265 109.875L156.754 112.244L151.51 111.113C151.125 111.029 150.741 110.987 150.359 110.985C149.986 110.985 149.641 111.042 149.324 111.155C149.008 111.268 148.738 111.442 148.516 111.676C148.292 111.92 148.137 112.244 148.05 112.649C147.96 113.063 147.967 113.427 148.071 113.742C148.184 114.058 148.362 114.329 148.606 114.553C148.86 114.779 149.156 114.969 149.496 115.122C149.836 115.276 150.193 115.394 150.569 115.475L155.812 116.606L155.301 118.975L150.058 117.844C149.345 117.69 148.701 117.455 148.124 117.139C147.545 116.833 147.059 116.446 146.666 115.978C146.283 115.513 146.023 114.963 145.888 114.329C145.751 113.705 145.768 112.993 145.941 112.194Z" fill="#FEFDF8"/>
<path d="M142.873 118.928L152.255 123.625L150.138 127.854C149.917 128.294 149.622 128.653 149.252 128.931C148.886 129.221 148.48 129.426 148.035 129.544C147.599 129.668 147.154 129.709 146.7 129.669C146.242 129.638 145.819 129.526 145.432 129.332C145.044 129.138 144.705 128.891 144.414 128.591C144.133 128.296 143.908 127.963 143.741 127.593C143.582 127.227 143.494 126.841 143.477 126.436L138.957 126.751L140.154 124.359L144.08 124.077L144.814 122.61L141.788 121.095L142.873 118.928ZM146.704 123.556L145.711 125.538C145.623 125.715 145.599 125.895 145.638 126.08C145.682 126.279 145.779 126.47 145.929 126.655C146.078 126.841 146.281 126.997 146.536 127.125C146.792 127.253 147.039 127.31 147.277 127.297C147.519 127.297 147.73 127.249 147.911 127.152C148.092 127.055 148.224 126.923 148.308 126.756L149.267 124.84L146.704 123.556Z" fill="#FEFDF8"/>
<path d="M131.524 141.127C131.928 141.624 132.23 142.184 132.431 142.807C132.639 143.438 132.725 144.092 132.69 144.767C132.654 145.443 132.477 146.101 132.159 146.74C131.846 147.387 131.369 147.971 130.726 148.492C129.961 149.113 129.166 149.485 128.341 149.61C127.508 149.74 126.739 149.653 126.036 149.349L126.662 147.166C127.02 147.357 127.368 147.449 127.705 147.442C128.034 147.441 128.346 147.372 128.64 147.235C128.933 147.111 129.191 146.96 129.413 146.78C129.772 146.488 130.027 146.161 130.177 145.798C130.333 145.443 130.402 145.076 130.386 144.696C130.369 144.316 130.285 143.946 130.134 143.587C129.982 143.228 129.788 142.904 129.552 142.613C129.291 142.292 128.99 142.022 128.649 141.804C128.307 141.587 127.952 141.438 127.582 141.357C127.204 141.283 126.826 141.286 126.446 141.365C126.073 141.452 125.726 141.626 125.404 141.887C125.175 142.073 124.973 142.301 124.798 142.57C124.623 142.839 124.501 143.134 124.432 143.456C124.362 143.792 124.382 144.137 124.492 144.492L122.219 144.833C122.057 144.305 122.045 143.75 122.182 143.169C122.32 142.588 122.56 142.032 122.902 141.501C123.243 140.983 123.64 140.541 124.091 140.174C124.68 139.696 125.319 139.374 126.009 139.208C126.697 139.055 127.382 139.032 128.065 139.138C128.746 139.258 129.387 139.486 129.99 139.822C130.591 140.172 131.102 140.607 131.524 141.127Z" fill="#FEFDF8"/>
<path d="M112.78 145.664C113.491 145.324 114.199 145.149 114.905 145.139C115.605 145.143 116.273 145.271 116.907 145.524C117.537 145.791 118.099 146.156 118.593 146.618C119.092 147.089 119.488 147.632 119.781 148.245C120.083 148.876 120.254 149.531 120.295 150.21C120.327 150.894 120.241 151.558 120.036 152.202C119.826 152.859 119.494 153.455 119.04 153.989C118.585 154.523 118.016 154.954 117.332 155.281C116.629 155.617 115.928 155.783 115.228 155.78C114.522 155.789 113.855 155.661 113.225 155.394C112.586 155.132 112.018 154.765 111.519 154.294C111.025 153.831 110.635 153.302 110.351 152.707C110.049 152.076 109.877 151.421 109.836 150.741C109.795 150.062 109.88 149.394 110.089 148.737C110.303 148.088 110.636 147.492 111.086 146.95C111.531 146.42 112.096 145.991 112.78 145.664ZM117.542 149.283C117.368 148.919 117.144 148.589 116.872 148.293C116.604 148.007 116.304 147.779 115.972 147.61C115.631 147.445 115.267 147.357 114.879 147.346C114.492 147.335 114.098 147.425 113.698 147.616C113.28 147.816 112.954 148.071 112.72 148.379C112.489 148.697 112.338 149.042 112.265 149.416C112.193 149.789 112.188 150.168 112.252 150.552C112.311 150.95 112.426 151.326 112.596 151.682C112.77 152.046 112.991 152.372 113.26 152.659C113.528 152.945 113.832 153.171 114.173 153.335C114.518 153.509 114.882 153.597 115.266 153.599C115.649 153.601 116.036 153.509 116.427 153.322C116.845 153.122 117.171 152.868 117.406 152.559C117.631 152.255 117.785 151.914 117.866 151.536C117.943 151.172 117.952 150.791 117.893 150.393C117.829 150.009 117.712 149.639 117.542 149.283Z" fill="#FEFDF8"/>
<path d="M96.2875 149.19L97.4956 155.323L98.8342 150.421L100.139 150.164L103.237 154.192L102.029 148.059L104.407 147.591L106.435 157.885L103.854 158.393L100.126 153.54L98.5038 159.447L95.9376 159.953L93.9097 149.659L96.2875 149.19Z" fill="#FEFDF8"/>
<path d="M89.1889 148.044L88.2514 158.494L81.1572 157.857L81.3474 155.738L86.0278 156.158L86.2298 153.906L82.3736 153.56L82.5493 151.602L86.4054 151.948L86.7751 147.827L89.1889 148.044Z" fill="#FEFDF8"/>
<path d="M74.1694 144.296C74.924 144.524 75.5653 144.871 76.0931 145.339C76.6087 145.813 77.0156 146.358 77.314 146.973C77.6001 147.594 77.7701 148.242 77.824 148.917C77.8751 149.601 77.8025 150.268 77.6064 150.919C77.4046 151.589 77.0901 152.189 76.663 152.718C76.2264 153.245 75.7154 153.678 75.1299 154.016C74.5322 154.36 73.8856 154.577 73.19 154.666C72.4945 154.755 71.7835 154.69 71.0572 154.471C70.3121 154.246 69.6817 153.897 69.1661 153.423C68.6383 152.955 68.2313 152.41 67.9452 151.789C67.6497 151.165 67.4764 150.511 67.4253 149.827C67.3714 149.152 67.4397 148.499 67.6301 147.867C67.8319 147.197 68.1464 146.597 68.5736 146.067C69.0007 145.538 69.5132 145.1 70.1109 144.756C70.7058 144.421 71.3524 144.204 72.0508 144.106C72.7369 144.014 73.4431 144.078 74.1694 144.296ZM75.2521 150.179C75.3686 149.792 75.4257 149.398 75.4234 148.996C75.4182 148.603 75.3498 148.233 75.2181 147.884C75.077 147.533 74.8669 147.223 74.588 146.954C74.309 146.684 73.9573 146.486 73.5328 146.358C73.0895 146.224 72.6772 146.193 72.2959 146.263C71.9117 146.343 71.5671 146.496 71.262 146.723C70.957 146.95 70.6986 147.227 70.4868 147.554C70.2628 147.888 70.0939 148.244 69.9802 148.621C69.8637 149.008 69.808 149.397 69.8132 149.79C69.8183 150.183 69.8915 150.554 70.0326 150.906C70.1709 151.266 70.3809 151.576 70.6627 151.836C70.9446 152.096 71.293 152.289 71.708 152.414C72.1513 152.547 72.5637 152.579 72.945 152.509C73.3168 152.435 73.66 152.287 73.9745 152.063C74.2767 151.845 74.5399 151.569 74.7639 151.236C74.9757 150.908 75.1384 150.556 75.2521 150.179Z" fill="#FEFDF8"/>
<path d="M67.6988 140.697L62.2655 149.672L58.2203 147.223C57.7989 146.968 57.4648 146.645 57.218 146.254C56.9576 145.866 56.7861 145.445 56.7034 144.992C56.6156 144.548 56.6097 144.101 56.6858 143.652C56.7535 143.197 56.8996 142.785 57.1241 142.414C57.3486 142.043 57.6218 141.725 57.9439 141.459C58.2608 141.202 58.6105 141.005 58.9929 140.868C59.3701 140.739 59.7615 140.683 60.1669 140.698L60.2151 136.167L62.5032 137.552L62.47 141.487L63.8732 142.337L65.6256 139.442L67.6988 140.697ZM62.7789 144.144L60.8827 142.997C60.7141 142.895 60.536 142.856 60.3484 142.88C60.1472 142.908 59.9484 142.989 59.7519 143.124C59.5554 143.258 59.3831 143.448 59.2352 143.692C59.0872 143.936 59.0103 144.178 59.0043 144.416C58.9847 144.657 59.016 144.872 59.098 145.06C59.1801 145.248 59.3012 145.39 59.4613 145.487L61.2943 146.597L62.7789 144.144Z" fill="#FEFDF8"/>
<path d="M45.8316 133.118L48.137 135.325L53.9215 129.284L55.6719 130.96L49.8874 137.001L52.2035 139.219L50.7318 140.756L44.3599 134.654L45.8316 133.118Z" fill="#FEFDF8"/>
<path d="M44.1781 115.749L36.0695 113.357L38.064 118.097L36.1027 118.922L32.9791 111.499L34.6544 110.794L42.6656 112.954L40.6653 108.201L42.6267 107.375L45.8535 115.044L44.1781 115.749Z" fill="#FEFDF8"/>
<path d="M41.8645 98.6953C42.0048 99.4709 41.9865 100.2 41.8096 100.883C41.6213 101.557 41.3212 102.167 40.9092 102.712C40.4858 103.25 39.9857 103.695 39.4092 104.05C38.8229 104.406 38.1953 104.645 37.5264 104.766C36.8381 104.89 36.1609 104.883 35.4949 104.743C34.8271 104.593 34.2097 104.335 33.6426 103.967C33.064 103.591 32.5772 103.113 32.1821 102.534C31.787 101.955 31.5219 101.292 31.3869 100.545C31.2484 99.7796 31.2732 99.0593 31.4615 98.3845C31.6384 97.7018 31.9385 97.0918 32.362 96.5547C32.7837 96.0079 33.2877 95.5564 33.8739 95.2C34.4505 94.8454 35.0636 94.6094 35.7131 94.4919C36.4014 94.3674 37.0785 94.3751 37.7446 94.5149C38.4106 94.6548 39.0329 94.9126 39.6114 95.2885C40.1803 95.6662 40.6671 96.1438 41.0719 96.7213C41.4653 97.2908 41.7295 97.9489 41.8645 98.6953ZM37.1162 102.332C37.5137 102.26 37.8909 102.132 38.248 101.947C38.5953 101.764 38.8942 101.535 39.1447 101.26C39.3935 100.974 39.5744 100.646 39.6875 100.275C39.8006 99.9046 39.8177 99.501 39.7388 99.0648C39.6564 98.6092 39.4973 98.2275 39.2614 97.9197C39.0159 97.6138 38.7227 97.3765 38.3818 97.2079C38.041 97.0392 37.6767 96.9349 37.289 96.8949C36.8899 96.847 36.4965 96.8581 36.1087 96.9282C35.7112 97.0001 35.3388 97.1275 34.9915 97.3105C34.6442 97.4935 34.3461 97.7276 34.0974 98.0128C33.839 98.2999 33.658 98.6279 33.5546 98.997C33.4512 99.3661 33.438 99.764 33.5152 100.191C33.5976 100.646 33.7567 101.028 33.9926 101.336C34.2267 101.634 34.5151 101.872 34.8577 102.05C35.1888 102.22 35.554 102.33 35.9531 102.378C36.3407 102.418 36.7285 102.402 37.1162 102.332Z" fill="#FEFDF8"/>
<path d="M36.4286 87.0082L42.4123 87.4441L42.2362 89.8612L31.7721 89.0988L31.9117 87.1828L38.4256 82.7828L32.265 82.334L32.4411 79.9169L42.9052 80.6793L42.7613 82.6542L36.4286 87.0082Z" fill="#FEFDF8"/>
<path d="M45.4473 69.4598L47.4642 70.1381L45.1139 77.1273L35.1693 73.7832L37.4772 66.92L39.4941 67.5983L37.9586 72.1644L39.8915 72.8144L41.2104 68.8925L43.0732 69.519L41.7544 73.4408L43.8694 74.152L45.4473 69.4598Z" fill="#FEFDF8"/>
<path d="M117.565 73.3103C108.562 63.8636 93.7843 62.6956 83.1496 67.2599C64.8212 75.1268 58.9455 100.494 69.3201 113.785C80.7598 128.44 99.315 127.97 109.514 121.111C122.732 112.222 130.233 95.536 122.025 81.1252" stroke="#FEFDF8" stroke-width="4.38189" stroke-miterlimit="1.5" stroke-linecap="round" stroke-linejoin="round"/>
<path d="M88.2905 86.1183C87.7943 87.7022 87.4456 89.3563 87.1678 90.9932" stroke="#FEFDF8" stroke-width="4.38189" stroke-miterlimit="1.5" stroke-linecap="round" stroke-linejoin="round"/>
<path d="M102.874 87.7483C102.604 89.7085 102.432 91.7705 101.955 93.6987" stroke="#FEFDF8" stroke-width="4.38189" stroke-miterlimit="1.5" stroke-linecap="round" stroke-linejoin="round"/>
<path d="M78.6067 98.7583C78.8308 100.651 79.6872 102.403 80.827 103.906C86.4165 111.279 98.8702 111.015 104.63 103.913" stroke="#FEFDF8" stroke-width="4.38189" stroke-miterlimit="1.5" stroke-linecap="round" stroke-linejoin="round"/>
</svg>
