<svg width="275" height="275" viewBox="0 0 275 275" fill="none" xmlns="http://www.w3.org/2000/svg">
<path d="M117.949 71.1182L120.801 70.3505C118.461 54.513 117.144 38.6718 118.275 26.2019C118.84 19.9637 120.011 14.6672 121.905 10.6617C123.792 6.67456 126.337 4.0772 129.634 2.97302C132.66 1.95956 134.999 1.48688 137.289 1.48688C139.578 1.48688 141.917 1.95956 144.943 2.97302C148.24 4.07722 150.786 6.67466 152.672 10.6619C154.567 14.6675 155.737 19.9642 156.303 26.2026C157.433 38.6729 156.116 54.5145 153.776 70.3523L156.628 71.12C162.554 56.2471 169.366 41.8848 176.604 31.6668C180.224 26.5551 183.895 22.5614 187.544 20.0481C191.177 17.5463 194.682 16.5774 198.088 17.2774C201.214 17.9198 203.475 18.6852 205.455 19.8343C207.435 20.9835 209.221 22.5665 211.329 24.962C213.594 27.5353 214.498 30.9963 214.169 35.3048C213.839 39.6343 212.266 44.7008 209.716 50.2739C204.617 61.4149 195.777 74.2288 185.994 86.605L188.08 88.6955C200.477 78.9391 213.311 70.1271 224.463 65.0532C230.041 62.5151 235.111 60.9538 239.442 60.6325C243.751 60.3128 247.21 61.2244 249.778 63.4952C252.169 65.6089 253.748 67.3984 254.893 69.381C256.038 71.3636 256.798 73.6258 257.434 76.7531C258.121 80.1375 257.163 83.6158 254.691 87.2166C252.207 90.8344 248.261 94.4718 243.205 98.0587C233.099 105.229 218.88 111.976 204.109 117.853L204.873 120.706C220.604 118.409 236.291 117.142 248.629 118.298C254.801 118.876 260.037 120.053 263.997 121.944C267.938 123.826 270.508 126.359 271.604 129.634C272.618 132.66 273.09 134.999 273.09 137.289C273.09 139.578 272.618 141.917 271.604 144.943C270.508 148.218 267.938 150.751 263.997 152.633C260.037 154.524 254.801 155.701 248.629 156.279C236.291 157.435 220.604 156.168 204.873 153.871L204.109 156.724C218.881 162.601 233.099 169.348 243.206 176.519C248.261 180.106 252.208 183.743 254.691 187.361C257.163 190.962 258.122 194.44 257.434 197.824C256.798 200.952 256.038 203.214 254.893 205.196C253.748 207.179 252.169 208.968 249.778 211.082C247.21 213.353 243.751 214.265 239.442 213.945C235.112 213.624 230.042 212.062 224.463 209.524C213.311 204.451 200.478 195.639 188.08 185.882L185.994 187.973C195.778 200.349 204.618 213.163 209.716 224.304C212.267 229.877 213.839 234.943 214.17 239.273C214.499 243.581 213.595 247.042 211.33 249.615C209.221 252.011 207.435 253.594 205.455 254.743C203.475 255.892 201.215 256.658 198.089 257.3C194.683 258 191.177 257.031 187.545 254.529C183.895 252.016 180.224 248.022 176.604 242.91C169.366 232.692 162.553 218.329 156.628 203.456L153.776 204.223C156.116 220.061 157.433 235.904 156.303 248.374C155.737 254.613 154.567 259.909 152.672 263.915C150.786 267.903 148.24 270.5 144.943 271.604C141.917 272.618 139.578 273.09 137.289 273.09C134.999 273.09 132.66 272.618 129.634 271.604C126.337 270.5 123.792 267.903 121.905 263.915C120.011 259.91 118.84 254.613 118.275 248.375C117.144 235.905 118.461 220.063 120.801 204.225L117.949 203.458C112.024 218.33 105.211 232.693 97.9737 242.911C94.3532 248.022 90.6823 252.016 87.0329 254.529C83.4002 257.031 79.8949 258 76.4891 257.3C73.3632 256.658 71.1026 255.892 69.1226 254.743C67.1425 253.594 65.3565 252.011 63.248 249.615C60.9829 247.042 60.0789 243.581 60.408 239.273C60.7388 234.943 62.3112 229.877 64.8615 224.304C69.9597 213.163 78.7997 200.349 88.5833 187.973L86.4973 185.882C74.0998 195.639 61.2666 204.451 50.1146 209.524C44.536 212.062 39.4661 213.624 35.136 213.945C30.8268 214.265 27.3679 213.353 24.7995 211.082C22.4087 208.968 20.8296 207.179 19.6848 205.196C18.54 203.214 17.7795 200.952 17.144 197.824C16.4562 194.44 17.415 190.962 19.8868 187.361C22.3703 183.743 26.3165 180.106 31.3723 176.519C41.4789 169.348 55.6975 162.601 70.4694 156.724L69.7049 153.871C53.9735 156.168 38.2864 157.435 25.9486 156.279C19.7766 155.701 14.5403 154.524 10.5805 152.633C6.63935 150.751 4.06978 148.218 2.97302 144.943C1.95956 141.917 1.48688 139.578 1.48688 137.289C1.48688 134.999 1.95956 132.66 2.97302 129.634C4.06978 126.359 6.63935 123.826 10.5805 121.944C14.5403 120.053 19.7766 118.876 25.9486 118.298C38.2864 117.142 53.9735 118.41 69.7049 120.706L70.4694 117.854C55.6975 111.976 41.4789 105.229 31.3724 98.0588C26.3166 94.4718 22.3704 90.8345 19.8869 87.2166C17.4151 83.6158 16.4564 80.1375 17.1441 76.7531C17.7797 73.6258 18.5401 71.3636 19.6849 69.381C20.8297 67.3984 22.4088 65.6089 24.7997 63.4952C27.368 61.2244 30.827 60.3128 35.1362 60.6325C39.4664 60.9538 44.5364 62.5151 50.1151 65.0532C61.2672 70.1271 74.1006 78.9391 86.4982 88.6955L88.5842 86.605C78.8005 74.2288 69.9604 61.4149 64.862 50.2739C62.3117 44.7008 60.7392 39.6343 60.4085 35.3048C60.0793 30.9963 60.9833 27.5353 63.2484 24.962C65.3569 22.5665 67.1429 20.9835 69.123 19.8343C71.103 18.6852 73.3635 17.9198 76.4895 17.2774C79.8952 16.5774 83.4005 17.5462 87.0331 20.0479C90.6825 22.5612 94.3533 26.5547 97.9737 31.6662C105.211 41.8838 112.024 56.2457 117.949 71.1182Z" fill="#FA9189" stroke="black" stroke-width="2.97376"/>
</svg>
