<svg width="495" height="114" viewBox="0 0 495 114" fill="none" xmlns="http://www.w3.org/2000/svg">
<path d="M308.783 112.578H1.1018C5.91592 72.1516 33.4339 41.4937 66.3115 41.4937C66.7244 41.4937 67.1364 41.4985 67.5475 41.5081L68.0633 41.5201L68.3664 41.1025C86.1495 16.603 113.288 0.983544 143.661 0.983544C183.477 0.983544 217.754 27.8375 232.646 66.3379L232.969 67.1728L233.83 66.9296C238.895 65.4999 244.221 64.7372 249.719 64.7372C278.052 64.7372 301.922 85.0205 308.783 112.578Z" fill="#B4E4FF" stroke="black" stroke-width="1.96709"/>
<path d="M493.369 91.1577H215.003C219.427 58.6071 244.212 33.8526 273.938 33.8526C274.312 33.8526 274.685 33.8565 275.058 33.8643L275.539 33.8744L275.842 33.5001C291.914 13.6621 316.47 0.983544 343.987 0.983544C380.065 0.983544 411.055 22.7801 424.501 53.9272L424.833 54.6962L425.645 54.4908C430.232 53.331 435.055 52.7119 440.035 52.7119C465.625 52.7119 487.097 69.0542 493.369 91.1577Z" fill="#CDFAD5" stroke="black" stroke-width="1.96709"/>
</svg>
