<svg width="205" height="201" viewBox="0 0 205 201" fill="none" xmlns="http://www.w3.org/2000/svg">
<path d="M11.6946 111.326C12.3808 116.919 14.2743 120.859 16.9957 123.532C19.7188 126.206 23.3443 127.685 27.6261 128.219C36.23 129.292 47.2904 126.527 58.3045 122.277C69.2905 118.039 80.1141 112.371 88.1993 107.756C92.2398 105.45 95.5921 103.41 97.9334 101.946C98.8934 101.346 99.6833 100.843 100.281 100.459C99.6081 100.23 98.7201 99.9332 97.6434 99.5829C95.0179 98.7288 91.2718 97.5591 86.7936 96.298C77.8328 93.7745 65.9601 90.8908 54.2754 89.4334C42.5607 87.9722 31.1598 87.9623 23.0705 91.0833C19.0447 92.6365 15.8842 94.9477 13.8883 98.2014C11.8937 101.453 11.0085 105.733 11.6946 111.326Z" fill="#FFCF96" stroke="black" stroke-width="1.54752"/>
<path d="M192.361 89.1629C193.047 94.7561 192.162 99.0363 190.168 102.288C188.172 105.541 185.011 107.853 180.985 109.406C172.896 112.527 161.495 112.517 149.78 111.056C138.096 109.598 126.223 106.714 117.262 104.191C112.784 102.93 109.038 101.76 106.412 100.906C105.336 100.556 104.448 100.259 103.775 100.03C104.373 99.6459 105.162 99.1429 106.122 98.5428C108.464 97.0794 111.816 95.0388 115.857 92.7327C123.942 88.1182 134.765 82.4502 145.751 78.2116C156.765 73.9622 167.826 71.1968 176.43 72.27C180.712 72.8041 184.337 74.2828 187.06 76.9575C189.781 79.6304 191.675 83.5696 192.361 89.1629Z" fill="#FFCF96" stroke="black" stroke-width="1.54752"/>
<path d="M66.4598 184.016C71.6467 186.218 76.005 186.548 79.6804 185.528C83.3584 184.507 86.4517 182.106 89.0552 178.665C94.2865 171.751 97.4218 160.789 99.2488 149.126C101.071 137.493 101.574 125.285 101.621 115.976C101.644 111.324 101.553 107.4 101.456 104.641C101.416 103.51 101.376 102.574 101.341 101.864C100.807 102.333 100.106 102.953 99.2642 103.71C97.2118 105.557 94.3257 108.216 90.9945 111.464C84.3287 117.963 75.895 126.803 68.7905 136.193C61.6677 145.608 55.9587 155.477 54.6169 164.043C53.9491 168.306 54.3704 172.198 56.1902 175.554C58.0087 178.907 61.2728 181.814 66.4598 184.016Z" fill="#FFCF96" stroke="black" stroke-width="1.54752"/>
<path d="M137.599 16.4731C142.786 18.6755 146.05 21.5823 147.869 24.9353C149.688 28.2906 150.11 32.1833 149.442 36.4463C148.1 45.0124 142.391 54.8809 135.268 64.2956C128.164 73.6861 119.73 82.5263 113.064 89.0249C109.733 92.2725 106.847 94.9319 104.795 96.7786C103.953 97.5359 103.252 98.1564 102.717 98.6247C102.683 97.9151 102.643 96.9795 102.603 95.848C102.506 93.0887 102.415 89.1653 102.438 84.513C102.485 75.2038 102.988 62.9963 104.81 51.3629C106.637 39.6996 109.772 28.7384 115.004 21.8238C117.607 18.3826 120.7 15.9823 124.378 14.9613C128.054 13.941 132.412 14.2707 137.599 16.4731Z" fill="#FFCF96" stroke="black" stroke-width="1.54752"/>
<path d="M156.792 172.935C152.291 176.325 148.142 177.699 144.328 177.597C140.513 177.495 136.931 175.914 133.573 173.204C126.825 167.759 121.134 157.881 116.542 147.005C111.961 136.157 108.522 124.433 106.227 115.411C105.08 110.902 104.22 107.073 103.647 104.372C103.412 103.265 103.226 102.347 103.087 101.65C103.719 101.976 104.549 102.408 105.549 102.94C107.987 104.235 111.43 106.118 115.448 108.464C123.487 113.159 133.807 119.699 142.971 127.093C152.158 134.507 160.083 142.703 163.456 150.691C165.134 154.666 165.666 158.545 164.711 162.241C163.757 165.934 161.293 169.544 156.792 172.935Z" fill="#FFCF96" stroke="black" stroke-width="1.54752"/>
<path d="M47.2646 27.5547C42.7638 30.9456 40.2992 34.5551 39.345 38.2483C38.3902 41.944 38.9223 45.8231 40.6007 49.7983C43.9733 57.786 51.8983 65.9819 61.0855 73.3957C70.2492 80.7906 80.5697 87.3301 88.6085 92.0248C92.626 94.371 96.0692 96.2538 98.5072 97.5497C99.507 98.0811 100.338 98.5137 100.969 98.839C100.831 98.1421 100.644 97.2245 100.409 96.117C99.8359 93.4161 98.9759 89.5871 97.8289 85.0783C95.5339 76.0563 92.0949 64.3324 87.5147 53.4844C82.9228 42.6086 77.2309 32.7302 70.4834 27.2851C67.1254 24.5753 63.5436 22.9938 59.7279 22.8921C55.9148 22.7905 51.7655 24.1639 47.2646 27.5547Z" fill="#FFCF96" stroke="black" stroke-width="1.54752"/>
</svg>
