<svg width="161" height="173" viewBox="0 0 161 173" fill="none" xmlns="http://www.w3.org/2000/svg">
<path fill-rule="evenodd" clip-rule="evenodd" d="M158.834 39.112C66.0855 95.337 50.4622 102.021 13.9556 69.0137C23.0079 100.555 18.8721 123.494 2 146.956C43.7592 134.229 51.3772 145.857 72.5744 160.409C59.5268 119.216 77.8249 105.663 158.834 39.112Z" fill="#FFF4A5" stroke="black" stroke-width="3.53878" stroke-miterlimit="1.5" stroke-linecap="round" stroke-linejoin="round"/>
<path fill-rule="evenodd" clip-rule="evenodd" d="M124.019 122.873C125.344 127.2 125.869 131.794 126.721 136.231L124.019 122.873Z" fill="#FFF4A5"/>
<path d="M124.019 122.873C125.344 127.2 125.869 131.794 126.721 136.231" stroke="black" stroke-width="3.53878" stroke-miterlimit="1.5" stroke-linecap="round" stroke-linejoin="round"/>
<path fill-rule="evenodd" clip-rule="evenodd" d="M106.575 150.764C110.012 150.237 113.482 149.26 116.88 148.467L106.575 150.764Z" fill="#FFF4A5"/>
<path d="M106.575 150.764C110.012 150.237 113.482 149.26 116.88 148.467" stroke="black" stroke-width="3.53878" stroke-miterlimit="1.5" stroke-linecap="round" stroke-linejoin="round"/>
<path fill-rule="evenodd" clip-rule="evenodd" d="M130.885 156.589C130.874 160.839 131.635 166.333 132.971 170.431L130.885 156.589Z" fill="#FFF4A5"/>
<path d="M130.885 156.589C130.874 160.839 131.635 166.333 132.971 170.431" stroke="black" stroke-width="3.53878" stroke-miterlimit="1.5" stroke-linecap="round" stroke-linejoin="round"/>
<path fill-rule="evenodd" clip-rule="evenodd" d="M141.847 144.344C146.43 144.715 151.258 142.867 155.837 142.295L141.847 144.344Z" fill="#FFF4A5"/>
<path d="M141.847 144.344C146.43 144.715 151.258 142.867 155.837 142.295" stroke="black" stroke-width="3.53878" stroke-miterlimit="1.5" stroke-linecap="round" stroke-linejoin="round"/>
<path fill-rule="evenodd" clip-rule="evenodd" d="M40.7849 2C41.2806 6.85366 42.1032 11.6466 43.0667 16.4215L40.7849 2Z" fill="#FFF4A5"/>
<path d="M40.7849 2C41.2806 6.85366 42.1032 11.6466 43.0667 16.4215" stroke="black" stroke-width="3.53878" stroke-miterlimit="1.5" stroke-linecap="round" stroke-linejoin="round"/>
<path fill-rule="evenodd" clip-rule="evenodd" d="M21.7119 29.2239C25.344 28.8987 28.8225 28.4478 32.3991 27.7958L21.7119 29.2239Z" fill="#FFF4A5"/>
<path d="M21.7119 29.2239C25.344 28.8987 28.8225 28.4478 32.3991 27.7958" stroke="black" stroke-width="3.53878" stroke-miterlimit="1.5" stroke-linecap="round" stroke-linejoin="round"/>
<path fill-rule="evenodd" clip-rule="evenodd" d="M46.908 36.5526C46.9835 41.0928 47.8882 45.9186 48.809 50.3832L46.908 36.5526Z" fill="#FFF4A5"/>
<path d="M46.908 36.5526C46.9835 41.0928 47.8882 45.9186 48.809 50.3832" stroke="black" stroke-width="3.53878" stroke-miterlimit="1.5" stroke-linecap="round" stroke-linejoin="round"/>
<path fill-rule="evenodd" clip-rule="evenodd" d="M58.3789 24.1245C62.5136 23.0936 66.3391 21.7007 70.6157 21.2114L58.3789 24.1245Z" fill="#FFF4A5"/>
<path d="M58.3789 24.1245C62.5136 23.0936 66.3391 21.7007 70.6157 21.2114" stroke="black" stroke-width="3.53878" stroke-miterlimit="1.5" stroke-linecap="round" stroke-linejoin="round"/>
</svg>
