<svg width="303" height="292" viewBox="0 0 303 292" fill="none" xmlns="http://www.w3.org/2000/svg">
<path d="M36.8834 264.672L52.2779 289.435C72.1446 276.502 78.1067 249.991 65.5312 229.763L35.0034 180.658C27.7303 168.959 31.8134 158.743 36.6455 155.739C41.4776 152.735 52.4455 153.594 59.7185 165.293L87.2134 209.519C100.273 230.526 127.932 242.413 150.417 228.435C172.901 214.457 174.48 184.392 161.421 163.386L133.926 119.16C126.653 107.461 130.736 97.2449 135.568 94.2409C140.4 91.2368 151.368 92.0956 158.641 103.795L186.136 148.021C199.195 169.027 226.855 180.915 249.339 166.937C271.824 152.958 273.402 122.894 260.343 101.888L232.848 57.6612C225.575 45.9622 229.658 35.7465 234.49 32.7425C239.323 29.7384 250.29 30.5972 257.563 42.2961L285.058 86.5226C298.118 107.529 325.777 119.416 348.262 105.438C348.588 105.235 348.91 105.029 349.228 104.819L333.808 80.0158C333.503 80.2707 333.192 80.4966 332.877 80.692C328.045 83.6961 317.077 82.8373 309.804 71.1384L282.309 26.9119C269.25 5.90545 241.591 -5.98187 219.106 7.9964C196.622 21.9747 195.043 52.0389 208.102 73.0454L235.597 117.272C242.87 128.971 238.787 139.186 233.955 142.19C229.123 145.195 218.155 144.336 210.882 132.637L183.387 88.4103C170.328 67.4039 142.668 55.5165 120.184 69.4948C97.6992 83.4731 96.1204 113.537 109.18 134.544L136.675 178.77C143.948 190.469 139.865 200.685 135.032 203.689C130.2 206.693 119.232 205.834 111.959 194.135L84.4646 149.909C71.4052 128.902 43.7459 117.015 21.2613 130.993C-1.22326 144.972 -2.80204 175.036 10.2573 196.042L40.7851 245.147C44.8633 251.707 43.0879 260.251 36.8834 264.672Z" fill="#B4E4FF" stroke="black" stroke-width="2.33107"/>
</svg>
