<svg width="1496" height="500" viewBox="0 0 1496 500" fill="none" xmlns="http://www.w3.org/2000/svg">
<g clip-path="url(#clip0_936_3)">
<rect width="1496" height="500" fill="white"/>
<rect y="-10" width="1920" height="914" fill="#F8EFFF"/>
<path d="M1162.76 5.32866L1162.16 3.11153C1149.94 4.89662 1137.74 5.88137 1128.16 4.98317C1123.36 4.53384 1119.29 3.61944 1116.21 2.14968C1113.15 0.686828 1111.15 -1.28158 1110.3 -3.82665C1109.84 -5.18983 1109.53 -6.37176 1109.34 -7.47109C1109.3 -7.74224 1109.26 -8.095 1109.23 -8.45809L1320.18 -8.84224C1320.14 -8.35331 1320.09 -7.85807 1320.03 -7.47109C1319.84 -6.37176 1319.53 -5.18982 1319.07 -3.82664C1318.22 -1.28159 1316.22 0.68681 1313.16 2.14965C1310.08 3.61941 1306.01 4.53382 1301.22 4.98316C1291.63 5.88138 1279.44 4.89667 1267.21 3.11162L1266.62 5.32875C1278.1 9.89648 1289.15 15.1401 1297 20.7126C1300.93 23.5003 1304 26.3271 1305.93 29.1388C1307.85 31.9373 1308.59 34.6405 1308.06 37.2707C1307.56 39.7012 1306.97 41.4593 1306.08 43.0001C1305.19 44.5409 1303.97 45.9317 1302.11 47.5744C1300.11 49.3392 1297.42 50.0476 1294.08 49.7992C1290.71 49.5495 1286.77 48.3362 1282.43 46.3637C1273.77 42.4205 1263.79 35.5723 1254.16 27.9899L1252.54 29.6146C1260.14 39.2329 1267.01 49.1915 1270.97 57.8498C1272.96 62.181 1274.18 66.1185 1274.43 69.4832C1274.69 72.8316 1273.99 75.5213 1272.23 77.5212C1270.59 79.3829 1269.2 80.6132 1267.66 81.5063C1266.12 82.3994 1264.37 82.9942 1261.94 83.4935C1259.29 84.0375 1256.57 83.2845 1253.74 81.34C1250.91 79.3867 1248.05 76.2828 1245.24 72.31C1239.62 64.3686 1234.32 53.2063 1229.71 41.6474L1227.5 42.244C1229.32 54.5528 1230.34 66.8648 1229.46 76.5565C1229.02 81.405 1228.11 85.5215 1226.64 88.6347C1225.17 91.7335 1223.2 93.7522 1220.63 94.6104C1218.28 95.398 1216.46 95.7654 1214.69 95.7654C1212.91 95.7654 1211.09 95.398 1208.74 94.6104C1206.17 93.7523 1204.2 91.7336 1202.73 88.6348C1201.26 85.5218 1200.35 81.4054 1199.91 76.5571C1199.03 66.8657 1200.05 54.554 1201.87 42.2454L1199.66 41.6488C1195.05 53.2075 1189.76 64.3694 1184.13 72.3105C1181.32 76.2832 1178.46 79.3869 1175.63 81.3402C1172.8 83.2845 1170.08 84.0375 1167.43 83.4935C1165 82.9942 1163.25 82.3994 1161.71 81.5063C1160.17 80.6132 1158.78 79.3829 1157.14 77.5212C1155.38 75.5213 1154.68 72.8316 1154.94 69.4832C1155.19 66.1185 1156.41 62.181 1158.4 57.8498C1162.36 49.1915 1169.23 39.2329 1176.83 29.6146L1175.21 27.9899C1165.58 35.5723 1155.6 42.4205 1146.94 46.3637C1142.6 48.3362 1138.66 49.5495 1135.3 49.7992C1131.95 50.0476 1129.26 49.3392 1127.26 47.5744C1125.4 45.9317 1124.18 44.5409 1123.29 43.0001C1122.4 41.4593 1121.81 39.7012 1121.31 37.2707C1120.78 34.6405 1121.52 31.9372 1123.44 29.1388C1125.37 26.3271 1128.44 23.5003 1132.37 20.7126C1140.22 15.14 1151.27 9.8964 1162.76 5.32866Z" fill="#FFF4A5" stroke="black" stroke-width="2.31112"/>
<path d="M1302.63 456.252L1325.44 492.944C1329.51 499.498 1330.98 506.935 1330.13 514.044L1307.88 514.044C1309.04 510.983 1308.81 507.435 1306.95 504.44L1284.14 467.748C1274.38 452.051 1275.56 429.587 1292.36 419.142C1309.16 408.697 1329.83 417.579 1339.59 433.276L1360.13 466.323C1365.57 475.064 1373.76 475.706 1377.37 473.461C1380.98 471.217 1384.03 463.583 1378.6 454.842L1358.05 421.795C1348.3 406.098 1349.48 383.634 1366.28 373.189C1383.08 362.744 1403.75 371.626 1413.5 387.323L1434.05 420.37C1439.48 429.111 1447.68 429.753 1451.29 427.508C1454.9 425.264 1457.95 417.63 1452.52 408.889L1431.97 375.842C1422.21 360.145 1423.39 337.681 1440.19 327.236C1456.99 316.791 1477.66 325.674 1487.42 341.37L1503.48 367.209L1503.48 399.584C1497.87 396.285 1492.97 391.536 1489.47 385.912L1468.93 352.865C1463.5 344.124 1455.3 343.482 1451.69 345.727C1448.08 347.971 1445.03 355.605 1450.46 364.346L1471.01 397.393C1480.76 413.09 1479.59 435.554 1462.78 445.999C1445.98 456.444 1425.32 447.562 1415.56 431.865L1395.01 398.818C1389.58 390.077 1381.38 389.435 1377.77 391.68C1374.16 393.924 1371.11 401.558 1376.55 410.299L1397.09 443.346C1406.85 459.043 1405.67 481.507 1388.87 491.952C1372.07 502.397 1351.4 493.514 1341.64 477.818L1321.1 444.771C1315.66 436.029 1307.47 435.388 1303.86 437.632C1300.24 439.877 1297.19 447.51 1302.63 456.252Z" fill="#B4E4FF"/>
<path d="M1507.97 374.417L1503.48 367.209M1503.48 367.209L1487.42 341.37C1477.66 325.674 1456.99 316.791 1440.19 327.236C1423.39 337.681 1422.21 360.145 1431.97 375.842L1452.52 408.889C1457.95 417.63 1454.9 425.264 1451.29 427.508C1447.68 429.753 1439.48 429.111 1434.05 420.37L1413.5 387.323C1403.75 371.626 1383.08 362.744 1366.28 373.189C1349.48 383.634 1348.3 406.098 1358.05 421.795L1378.6 454.842C1384.03 463.583 1380.98 471.217 1377.37 473.461C1373.76 475.706 1365.57 475.064 1360.13 466.323L1339.59 433.276C1329.83 417.579 1309.16 408.697 1292.36 419.142C1275.56 429.587 1274.38 452.051 1284.14 467.748L1306.95 504.44C1308.81 507.435 1309.04 510.983 1307.88 514.044L1330.13 514.044C1330.98 506.935 1329.51 499.498 1325.44 492.944L1302.63 456.252C1297.19 447.51 1300.24 439.877 1303.86 437.632C1307.47 435.388 1315.66 436.029 1321.1 444.771L1341.64 477.818C1351.4 493.514 1372.07 502.397 1388.87 491.952C1405.67 481.507 1406.85 459.043 1397.09 443.346L1376.55 410.299C1371.11 401.558 1374.16 393.924 1377.77 391.68C1381.38 389.435 1389.58 390.077 1395.01 398.818L1415.56 431.865C1425.32 447.562 1445.98 456.444 1462.78 445.999C1479.59 435.554 1480.76 413.09 1471.01 397.393L1450.46 364.346C1445.03 355.605 1448.08 347.971 1451.69 345.727C1455.3 343.482 1463.5 344.124 1468.93 352.865L1489.47 385.912C1492.97 391.536 1497.87 396.285 1503.48 399.584L1503.48 367.209Z" stroke="black" stroke-width="1.74182"/>
<path d="M952.383 481.921C947.078 504.647 924.643 519.05 901.772 514.414L910.831 472.862L952.383 481.921Z" fill="#CB9DF0" stroke="black" stroke-width="1.29473"/>
<path d="M1004.54 448.44C981.673 443.805 959.239 458.208 953.933 480.934L995.486 489.993L1004.54 448.44Z" fill="#CB9DF0" stroke="black" stroke-width="1.29473"/>
<path d="M920.172 430.041C915.536 452.913 929.939 475.347 952.665 480.652L961.724 439.1L920.172 430.041Z" fill="#CB9DF0" stroke="black" stroke-width="1.29473"/>
<path d="M944.921 522.573L953.653 482.203C972.84 486.689 986.103 503.698 986.968 522.573L944.921 522.573Z" fill="#CB9DF0" stroke="black" stroke-width="1.29473"/>
<path d="M164.338 415.518L166.43 414.98C164.716 402.829 163.751 390.668 164.58 381.09C164.994 376.298 165.853 372.223 167.246 369.138C168.634 366.061 170.505 364.069 172.911 363.225C175.124 362.448 176.832 362.087 178.5 362.087C180.168 362.087 181.876 362.448 184.089 363.225C186.495 364.069 188.366 366.061 189.754 369.138C191.147 372.223 192.006 376.299 192.42 381.091C193.249 390.669 192.283 402.83 190.57 414.982L192.662 415.52C197 404.108 201.99 393.085 207.292 385.241C209.945 381.316 212.635 378.25 215.308 376.321C217.968 374.4 220.523 373.666 222.998 374.199C225.283 374.691 226.934 375.277 228.382 376.157C229.831 377.038 231.14 378.253 232.685 380.094C234.356 382.082 235.023 384.763 234.781 388.09C234.537 391.428 233.381 395.326 231.513 399.604C227.777 408.159 221.302 417.993 214.14 427.487L215.699 428.98C224.775 421.495 234.169 414.736 242.331 410.845C246.415 408.898 250.121 407.703 253.283 407.457C256.424 407.213 258.948 407.907 260.828 409.649C262.579 411.271 263.739 412.647 264.581 414.176C265.424 415.706 265.983 417.451 266.45 419.856C266.961 422.489 266.245 425.184 264.431 427.953C262.608 430.735 259.716 433.527 256.016 436.278C248.618 441.778 238.211 446.953 227.399 451.461L227.981 453.539C239.496 451.777 250.975 450.806 260 451.692C264.515 452.135 268.343 453.036 271.237 454.485C274.114 455.925 276.009 457.87 276.821 460.41C277.564 462.736 277.913 464.542 277.913 466.313C277.913 468.084 277.564 469.89 276.821 472.216C276.009 474.756 274.114 476.701 271.237 478.141C268.343 479.59 264.515 480.491 260 480.935C250.975 481.821 239.496 480.849 227.981 479.088L227.399 481.165C238.211 485.673 248.618 490.848 256.016 496.348C259.716 499.099 262.608 501.891 264.431 504.673C266.242 507.438 266.958 510.128 266.452 512.757L265.99 514.866H90.8361L90.5603 512.831L90.5561 512.8L90.5503 512.77C90.0397 510.137 90.7552 507.443 92.5695 504.673C94.3919 501.891 97.2842 499.099 100.984 496.348C108.382 490.848 118.79 485.673 129.602 481.165L129.019 479.088C117.504 480.849 106.026 481.821 96.9999 480.935C92.4854 480.491 88.6573 479.59 85.7626 478.141C82.8857 476.701 80.9911 474.756 80.1794 472.216C79.436 469.89 79.0868 468.084 79.0868 466.313C79.0868 464.542 79.436 462.736 80.1794 460.41C80.9911 457.87 82.8857 455.925 85.7626 454.485C88.6573 453.036 92.4855 452.135 96.9999 451.692C106.026 450.806 117.504 451.777 129.019 453.539L129.602 451.461C118.79 446.953 108.382 441.778 100.984 436.278C97.2842 433.527 94.392 430.735 92.5696 427.953C90.7553 425.184 90.0398 422.489 90.5503 419.856C91.0168 417.451 91.5761 415.706 92.4193 414.176C93.2616 412.647 94.4215 411.271 96.1718 409.649C98.0527 407.907 100.576 407.213 103.717 407.457C106.879 407.703 110.586 408.898 114.669 410.845C122.831 414.736 132.225 421.495 141.301 428.98L142.86 427.487C135.698 417.993 129.223 408.159 125.487 399.604C123.619 395.326 122.463 391.428 122.22 388.09C121.977 384.763 122.645 382.082 124.315 380.094C125.861 378.253 127.17 377.038 128.619 376.157C130.066 375.277 131.718 374.691 134.003 374.199C136.477 373.666 139.032 374.4 141.693 376.321C144.365 378.249 147.055 381.315 149.708 385.24C155.01 393.084 159.999 404.107 164.338 415.518Z" fill="#FA9189" stroke="black" stroke-width="2.17355"/>
</g>
<defs>
<clipPath id="clip0_936_3">
<rect width="1496" height="500" fill="white"/>
</clipPath>
</defs>
</svg>
