<svg width="327" height="109" viewBox="0 0 327 109" fill="none" xmlns="http://www.w3.org/2000/svg">
<circle cx="130.437" cy="60.5996" r="47.4371" fill="#CDFAD5"/>
<circle cx="197.611" cy="46.4681" r="46.4681" fill="#CB9DF0"/>
<path d="M25.6343 74.3404C23.2371 74.3404 21.0219 74.1886 18.9888 73.8852C16.9557 73.5818 15.0743 73.1418 13.3447 72.5652C11.6453 71.9886 10.1129 71.2907 8.74741 70.4714C7.41224 69.6521 6.22879 68.7266 5.19707 67.6949C4.16534 66.6631 3.30052 65.5404 2.60258 64.3266C1.935 63.0824 1.43431 61.7624 1.10052 60.3666C0.766722 58.9707 0.599826 57.499 0.599826 55.9514C0.599826 53.4328 1.00948 51.1721 1.82879 49.1693C2.6481 47.1666 3.80121 45.4369 5.2881 43.9804C6.80534 42.5238 8.59569 41.31 10.6591 40.339C12.7529 39.368 15.0591 38.6549 17.5778 38.1997C20.0964 37.7142 22.7819 37.4714 25.6343 37.4714C30.6716 37.4714 34.9502 38.0783 38.4702 39.2921C41.9902 40.5059 44.7667 42.2507 46.7998 44.5266C48.8633 46.8024 50.1529 49.5638 50.6688 52.8107L31.324 55.9514C31.324 55.2535 31.1722 54.6617 30.8688 54.1762C30.5653 53.6604 30.1557 53.2507 29.6398 52.9473C29.124 52.6438 28.5171 52.4162 27.8191 52.2645C27.1516 52.1128 26.4233 52.0369 25.6343 52.0369C24.5419 52.0369 23.5709 52.1886 22.7212 52.4921C21.8716 52.7652 21.1888 53.19 20.6729 53.7666C20.1874 54.3128 19.9447 55.0107 19.9447 55.8604C19.9447 56.3762 20.0357 56.8466 20.2178 57.2714C20.3998 57.6962 20.6578 58.0755 20.9916 58.4093C21.3253 58.7128 21.7198 58.9707 22.175 59.1831C22.6605 59.3652 23.1916 59.5169 23.7681 59.6383C24.3447 59.7293 24.9667 59.7749 25.6343 59.7749C27.2426 59.7749 28.5929 59.4562 29.6853 58.819C30.7778 58.1514 31.324 57.1955 31.324 55.9514L50.6688 57.9086C50.335 60.1542 49.5916 62.2631 48.4385 64.2355C47.3157 66.208 45.7378 67.9528 43.7047 69.47C41.7019 70.9873 39.1984 72.1707 36.1943 73.0204C33.2205 73.9004 29.7005 74.3404 25.6343 74.3404ZM76.7079 37.4714C82.2913 37.4714 86.9341 38.2604 90.6361 39.8383C94.3382 41.4162 97.1148 43.5859 98.9658 46.3473C100.817 49.1086 101.742 52.2797 101.742 55.8604C101.742 57.8024 101.454 59.6838 100.878 61.5045C100.301 63.2949 99.3906 64.979 98.1465 66.5569C96.9023 68.1045 95.2941 69.47 93.3217 70.6535C91.3492 71.8066 88.9823 72.7018 86.221 73.339C83.4899 74.0066 80.3189 74.3404 76.7079 74.3404C74.1285 74.3404 71.7617 74.1583 69.6072 73.7942C67.483 73.4604 65.5561 72.99 63.8265 72.3831C62.0968 71.7459 60.5644 70.9873 59.2292 70.1073C57.9244 69.2273 56.7865 68.2562 55.8154 67.1942C54.8748 66.1017 54.0858 64.9486 53.4485 63.7349C52.8416 62.5211 52.3865 61.2466 52.083 59.9114C51.8099 58.5762 51.6734 57.2259 51.6734 55.8604C51.6734 54.07 51.901 52.3707 52.3561 50.7624C52.8416 49.1542 53.5396 47.6673 54.4499 46.3017C55.3906 44.9362 56.5437 43.7224 57.9092 42.6604C59.3051 41.568 60.9285 40.6424 62.7796 39.8838C64.6306 39.0949 66.7092 38.5031 69.0154 38.1086C71.352 37.6838 73.9161 37.4714 76.7079 37.4714ZM76.7534 51.9459C75.6913 51.9459 74.781 52.0673 74.0223 52.31C73.2941 52.5224 72.7023 52.8259 72.2472 53.2204C71.8223 53.5845 71.5037 54.0093 71.2913 54.4949C71.1092 54.95 71.0182 55.4204 71.0182 55.9059C71.0182 56.5431 71.2003 57.1652 71.5644 57.7721C71.9285 58.379 72.5354 58.8797 73.3851 59.2742C74.2348 59.6686 75.3575 59.8659 76.7534 59.8659C77.5727 59.8659 78.2858 59.79 78.8927 59.6383C79.5299 59.4866 80.061 59.2893 80.4858 59.0466C80.941 58.7735 81.3051 58.47 81.5782 58.1362C81.8817 57.7721 82.0941 57.408 82.2154 57.0438C82.3368 56.6493 82.3975 56.2549 82.3975 55.8604C82.3975 55.4052 82.2913 54.95 82.0789 54.4949C81.8968 54.0397 81.5934 53.63 81.1685 53.2659C80.7437 52.8714 80.1672 52.5528 79.4389 52.31C78.7106 52.0673 77.8154 51.9459 76.7534 51.9459ZM157.961 38.8369C157.961 41.1128 157.961 43.3886 157.961 45.6645C157.961 47.9404 157.961 50.2162 157.961 52.4921C157.961 54.768 157.961 57.0438 157.961 59.3197C157.961 61.5955 157.961 63.8714 157.961 66.1473C157.961 68.4231 157.961 70.699 157.961 72.9749H140.437C140.437 69.819 140.437 66.6631 140.437 63.5073C140.437 60.3514 140.437 57.1955 140.437 54.0397C140.437 54.0093 140.422 53.9942 140.392 53.9942C140.392 53.9942 140.377 53.9942 140.346 53.9942C140.346 53.9942 140.346 54.0093 140.346 54.0397L135.886 72.9749H124.279C123.52 69.819 122.777 66.6783 122.048 63.5528C121.32 60.4273 120.577 57.3017 119.818 54.1762C119.818 54.1459 119.803 54.1307 119.773 54.1307C119.773 54.1307 119.757 54.1307 119.727 54.1307C119.727 54.1307 119.727 54.1459 119.727 54.1762C119.727 57.3017 119.727 60.4273 119.727 63.5528C119.727 66.6783 119.727 69.819 119.727 72.9749H103.113C103.113 70.699 103.113 68.4231 103.113 66.1473C103.113 63.8411 103.113 61.55 103.113 59.2742C103.113 56.968 103.113 54.6769 103.113 52.4011C103.113 50.0949 103.113 47.8038 103.113 45.528C103.113 44.4052 103.113 43.2976 103.113 42.2052C103.113 41.0824 103.113 39.9597 103.113 38.8369H127.374C127.829 40.7183 128.269 42.5997 128.694 44.4811C129.119 46.3321 129.544 48.1983 129.968 50.0797C130.424 51.9611 130.864 53.8424 131.288 55.7238C131.288 55.7542 131.288 55.7845 131.288 55.8149C131.319 55.8149 131.334 55.8149 131.334 55.8149C131.364 55.7845 131.379 55.7542 131.379 55.7238L135.021 38.8369H157.961ZM198.068 52.219H178.723C178.723 52.219 178.723 52.2342 178.723 52.2645V54.9045C178.723 54.9349 178.723 54.95 178.723 54.95H197.385V65.7831H178.723C178.723 65.7831 178.723 65.7983 178.723 65.8286C178.723 66.8604 178.723 67.7252 178.723 68.4231C178.723 69.0907 178.723 69.7583 178.723 70.4259C178.723 71.0935 178.723 71.9431 178.723 72.9749H159.787C159.787 70.8204 159.787 68.6659 159.787 66.5114C159.787 64.3569 159.787 62.2176 159.787 60.0935C159.787 57.939 159.787 55.7845 159.787 53.63C159.787 51.4755 159.787 49.3211 159.787 47.1666C159.787 45.7707 159.787 44.39 159.787 43.0245C159.787 41.6286 159.787 40.2328 159.787 38.8369H198.068V52.219ZM227.788 38.8369H248.453C246.784 41.8714 245.115 44.9059 243.446 47.9404C241.777 50.9749 240.093 54.0093 238.394 57.0438C236.725 60.0783 235.056 63.1128 233.387 66.1473V72.9749H214.497V66.1017C213.435 64.2811 212.373 62.4604 211.311 60.6397C210.279 58.819 209.232 56.9983 208.17 55.1776C207.138 53.3569 206.092 51.5514 205.03 49.7611C203.967 47.9404 202.905 46.1197 201.843 44.299C200.812 42.4783 199.765 40.6576 198.703 38.8369H220.551C220.945 40.2935 221.325 41.75 221.689 43.2066C222.083 44.6631 222.478 46.1197 222.872 47.5762C223.267 49.0328 223.646 50.4893 224.01 51.9459C224.01 51.9459 224.01 51.9611 224.01 51.9914C224.041 51.9914 224.056 51.9914 224.056 51.9914C224.086 51.9611 224.101 51.9459 224.101 51.9459C224.405 50.8535 224.708 49.7611 225.012 48.6686C225.315 47.5762 225.618 46.4838 225.922 45.3914C226.256 44.299 226.574 43.2066 226.878 42.1142C227.181 41.0217 227.485 39.9293 227.788 38.8369ZM268.156 59.5017C268.156 59.5321 268.156 59.5624 268.156 59.5928C268.186 59.5928 268.217 59.5928 268.247 59.5928H285.999V72.9749H249.266C249.266 71.0935 249.266 69.2121 249.266 67.3307C249.266 65.4493 249.266 63.568 249.266 61.6866C249.266 59.7749 249.266 57.8783 249.266 55.9969C249.266 54.1155 249.266 52.2342 249.266 50.3528C249.266 48.4411 249.266 46.5293 249.266 44.6176C249.266 42.6755 249.266 40.7486 249.266 38.8369H268.156C268.156 40.5666 268.156 42.2962 268.156 44.0259C268.156 45.7252 268.156 47.4397 268.156 49.1693C268.156 50.899 268.156 52.6286 268.156 54.3583C268.156 56.0576 268.156 57.7721 268.156 59.5017ZM325.774 50.3073H305.974C305.943 50.3073 305.928 50.3073 305.928 50.3073V52.8107C305.928 52.8411 305.928 52.8714 305.928 52.9017C305.958 52.9017 305.974 52.9017 305.974 52.9017H325.091V59.3197H305.974C305.974 59.3197 305.958 59.3197 305.928 59.3197C305.928 59.3197 305.928 59.3349 305.928 59.3652C305.928 59.3652 305.928 59.3804 305.928 59.4107V61.9597C305.958 61.9597 305.974 61.9597 305.974 61.9597H326.047V72.9749H287.494C287.494 71.1845 287.494 69.3942 287.494 67.6038C287.494 65.7831 287.494 63.9776 287.494 62.1873C287.494 60.3969 287.494 58.6066 287.494 56.8162C287.494 54.9955 287.494 53.19 287.494 51.3997C287.494 49.579 287.494 47.7735 287.494 45.9831C287.494 44.7997 287.494 43.6162 287.494 42.4328C287.494 41.219 287.494 40.0204 287.494 38.8369H325.774V50.3073Z" fill="#25262B"/>
</svg>
