<svg width="140" height="33" viewBox="0 0 140 33" fill="none" xmlns="http://www.w3.org/2000/svg">
<path fill-rule="evenodd" clip-rule="evenodd" d="M118.392 1.49068C119.575 0.10217 121.659 -0.0647834 123.048 1.11777L137.83 13.7076C140.222 15.7446 139.957 19.5153 137.305 21.1985L119.785 32.3149C118.245 33.2921 116.204 32.8358 115.227 31.2958C114.25 29.7558 114.706 27.7153 116.246 26.7381L127.055 19.88C126.659 19.9195 126.226 19.9598 125.761 19.9993C123.26 20.2116 119.796 20.4012 115.952 20.3064C108.475 20.122 98.7209 18.8546 92.1486 13.7885C88 10.5906 84.6006 8.98462 81.7264 8.33568C78.9037 7.69837 76.3938 7.9394 73.9083 8.76002C71.3501 9.60465 68.7999 11.0674 65.9328 12.9462C64.987 13.566 63.9796 14.2505 62.9283 14.9649C60.9549 16.3058 58.8268 17.7519 56.6602 19.0725C53.1428 21.34 47.8694 22.0887 42.7218 21.3231C37.4429 20.538 31.7638 18.092 27.4889 13.3041C26.3403 12.0176 25.1135 11.5923 23.6961 11.6262C22.1127 11.6641 20.1797 12.2954 17.9813 13.4732C14.316 15.4369 10.8007 18.4003 8.02482 20.7404C7.43633 21.2365 6.88107 21.7046 6.36465 22.1292C4.95588 23.2876 2.87483 23.0846 1.71648 21.6758C0.558144 20.267 0.76116 18.186 2.16993 17.0276C2.5828 16.6882 3.0585 16.2858 3.58788 15.8381C6.33006 13.519 10.5125 9.98177 14.8623 7.65137C17.4798 6.24899 20.4774 5.09667 23.538 5.0234C26.7645 4.94616 29.8949 6.08208 32.4156 8.90523C35.4793 12.3365 39.6461 14.1884 43.6933 14.7903C47.8497 15.4084 51.3594 14.6428 53.1014 13.5085L53.1435 13.4811L53.1863 13.455C55.2491 12.1994 57.1111 10.9325 58.9903 9.65387C60.078 8.9138 61.1714 8.16982 62.3128 7.42188C65.2911 5.47028 68.4301 3.61334 71.8377 2.48829C75.318 1.33923 79.0509 0.960629 83.181 1.89314C87.2596 2.81401 91.5232 4.96727 96.1808 8.5575C100.958 12.2396 108.816 13.5237 116.115 13.7037C119.658 13.7911 122.872 13.6161 125.203 13.4183C125.925 13.357 126.559 13.2937 127.09 13.2358L118.765 6.146C117.377 4.96344 117.21 2.87918 118.392 1.49068Z" fill="#25262B"/>
</svg>
